<svg width="250" height="250" viewBox="0 0 250 250" fill="none" xmlns="http://www.w3.org/2000/svg">
<path d="M125 47.0824L146.823 68.9055C148.145 70.2271 150.202 70.4679 151.794 69.4834L226.996 23.0041L205.173 1.18102C203.851 -0.140613 201.794 -0.381396 200.202 0.603142L125 47.0824Z" fill="#17CAFA"/>
<path d="M202.917 125L181.094 103.177C179.773 101.856 179.532 99.7982 180.516 98.2063L226.996 23.0042L248.819 44.8272C250.14 46.1489 250.381 48.2062 249.397 49.7981L202.917 125Z" fill="#17CAFA"/>
<path d="M202.917 125L181.094 146.823C179.773 148.145 179.532 150.202 180.516 151.794L226.996 226.996L248.819 205.173C250.14 203.852 250.381 201.794 249.397 200.202L202.917 125Z" fill="#0E56FA"/>
<path d="M125 202.918L146.823 181.095C148.145 179.773 150.202 179.532 151.794 180.517L226.996 226.996L205.173 248.819C203.851 250.141 201.794 250.382 200.202 249.397L125 202.918Z" fill="#0E56FA"/>
<path d="M125.001 202.915L103.178 181.092C101.856 179.77 99.7987 179.529 98.2069 180.514L23.0047 226.993L44.8278 248.816C46.1494 250.138 48.2068 250.379 49.7986 249.394L125.001 202.915Z" fill="#0E56FA"/>
<path d="M47.0826 124.997L68.9056 146.82C70.2272 148.142 70.468 150.199 69.4835 151.791L23.0042 226.993L1.18116 205.17C-0.140475 203.849 -0.381259 201.791 0.603279 200.199L47.0826 124.997Z" fill="#0E56FA"/>
<path d="M47.0826 124.997L68.9056 103.174C70.2272 101.853 70.468 99.7953 69.4835 98.2035L23.0042 23.0013L1.18116 44.8244C-0.140475 46.146 -0.381259 48.2034 0.603279 49.7952L47.0826 124.997Z" fill="#0E56FA"/>
<path d="M125.001 47.0798L103.178 68.9028C101.856 70.2244 99.7987 70.4652 98.2069 69.4807L23.0047 23.0014L44.8278 1.18102C46.1494 -0.140613 48.2068 -0.381396 49.7986 0.603142L125.001 47.0824V47.0798Z" fill="#0E56FA"/>
</svg>
